<svg xmlns="http://www.w3.org/2000/svg" viewBox="0 0 512 360" role="img" aria-label="White impact burst bubble">
  <metadata>{"id":"burst-impact-white","contentBox":[124,108,264,116],"tail":null,"style":"burst"}</metadata>
  <defs>
    <pattern id="dots-burst-impact" width="12" height="12" patternUnits="userSpaceOnUse">
      <circle cx="3" cy="3" r="2" fill="#111" opacity=".4"/>
    </pattern>
  </defs>
  <g stroke="#111" stroke-width="5" stroke-linecap="round" vector-effect="non-scaling-stroke">
    <path d="M256 14v54M256 292v54M22 180h62M428 180h62M82 58l45 45M385 257l45 45M430 58l-45 45M127 257l-45 45" opacity=".42"/>
    <path d="M179 23l20 52M313 285l20 52M47 116l55 21M410 223l55 21M333 23l-20 52M199 285l-20 52M465 116l-55 21M102 223l-55 21" opacity=".28"/>
  </g>
  <path d="M88 264c42 19 91 14 130 3 46 28 103 20 137-10 49 6 91-23 96-66 4-39-23-68-62-78-6-43-45-70-91-58-39-32-93-30-126 6-48-7-88 20-95 63-41 14-62 48-47 86 8 19 26 39 58 54Z" fill="url(#dots-burst-impact)" opacity=".5"/>
  <path d="M256 32l37 71 72-38-20 78 84 12-67 47 56 62-84-5-9 81-49-65-61 55-8-81-82 18 46-69-72-35 80-25-28-77 72 40 37-69Z" fill="#fffdf8"/>
  <path d="M256 32l37 71 72-38-20 78 84 12-67 47 56 62-84-5-9 81-49-65-61 55-8-81-82 18 46-69-72-35 80-25-28-77 72 40 37-69Z" fill="none" stroke="#111" stroke-width="8" stroke-linejoin="round" vector-effect="non-scaling-stroke"/>
</svg>
