<svg xmlns="http://www.w3.org/2000/svg" viewBox="0 0 512 340" role="img" aria-label="Soft thought cloud bubble">
  <metadata>{"id":"thought-cloud-soft","contentBox":[88,78,336,136],"tail":[124,276],"style":"thought"}</metadata>
  <defs>
    <pattern id="dots-cloud-soft" width="13" height="13" patternUnits="userSpaceOnUse">
      <circle cx="3.4" cy="3.4" r="2" fill="#111" opacity=".36"/>
    </pattern>
  </defs>
  <path d="M111 240c31 21 82 31 151 28 85-3 147-35 166-82 18-44-10-87-61-93-14-36-58-50-94-28-29-34-88-33-116 4-43-13-87 6-95 45-43 12-54 65-18 94 11 9 30 21 67 32Z" fill="url(#dots-cloud-soft)" opacity=".48"/>
  <path d="M94 70c25-32 69-33 94-9 31-40 96-41 125-4 39-19 83 0 94 38 42 6 69 39 61 76-9 44-61 74-131 82-74 8-153-1-205-25-51 13-98-16-101-55-3-33 23-59 63-62-14-17-13-31 0-41Z" fill="#fffdf8"/>
  <path d="M94 70c25-32 69-33 94-9 31-40 96-41 125-4 39-19 83 0 94 38 42 6 69 39 61 76-9 44-61 74-131 82-74 8-153-1-205-25-51 13-98-16-101-55-3-33 23-59 63-62-14-17-13-31 0-41Z" fill="none" stroke="#111" stroke-width="7" stroke-linecap="round" stroke-linejoin="round" vector-effect="non-scaling-stroke"/>
  <g fill="#fffdf8" stroke="#111" stroke-width="6" vector-effect="non-scaling-stroke">
    <circle cx="144" cy="274" r="17"/>
    <circle cx="108" cy="302" r="10"/>
    <circle cx="82" cy="320" r="6"/>
  </g>
</svg>
